<svg fill="none" height="41" viewBox="0 0 107 41" width="107" xmlns="http://www.w3.org/2000/svg" xmlns:xlink="http://www.w3.org/1999/xlink"><mask id="a" height="22" maskUnits="userSpaceOnUse" width="16" x="91" y="9"><path clip-rule="evenodd" d="m106.499 30.2628v-20.45347h-15.249v20.45347z" fill="#fff" fill-rule="evenodd"/></mask><g clip-rule="evenodd" fill="#18babd" fill-rule="evenodd"><path d="m29.3445 20.1141v-10.22897h-4.9109v10.22897c0 5.4513 4.4057 9.8715 9.8276 9.8715v-4.9263c-2.7096 0-4.9167-2.2211-4.9167-4.9452z"/><path d="m45.0205 25.2664v.0002c-.0011 0-.0022-.0001-.0034-.0001-.0011 0-.0023.0001-.0034.0001v-.0002c-2.7333-.0037-4.8203-2.2292-4.8203-4.9757v-.3978c0-1.3202.4475-2.5748 1.3836-3.5089.9258-.9329 2.1278-1.606 3.4415-1.6164h.0007.0006c1.3137.0104 2.5116.6835 3.4374 1.6164.9362.9341 1.3796 2.1887 1.3796 3.5089v.3978c0 2.7465-2.083 4.972-4.8163 4.9757zm4.6987-15.38494v1.48274c-1.3524-.8882-2.8768-1.60089-4.7109-1.60089h-.0169-.0308c-2.6345 0-5.0581 1.14119-6.92 2.99589-1.8694 1.8852-2.8453 4.4765-2.8453 7.1337v.3978c0 5.4975 4.2676 9.9552 9.7417 9.9552 1.7671 0 3.4298-.5044 4.7822-1.3715v11.7266h4.763.15v-14.774-.6449-7.3579-2.9804-4.96039z"/><path d="m26.9475 6.19601c1.6534 0 3.0451-1.34622 3.0451-3.11974 0-1.72804-1.3917-3.07627-3.0451-3.07627-1.7016 0-3.1233 1.34823-3.1233 3.07627 0 1.77352 1.4217 3.11974 3.1233 3.11974z"/></g><g mask="url(#a)"><path clip-rule="evenodd" d="m101.76 18.5228-3.1966-1.0081c-1.1102-.3737-1.9992-.9642-1.9494-1.7543.0931-1.4824 1.3401-1.8655 2.5786-1.7871.7508.0476 1.6064.344 2.1004.9621l4.39-1.4794.191-.0933c-1.204-2.3051-3.867-3.36715-6.5416-3.53658-3.8781-.24511-7.3407 2.22398-7.5379 5.36318-.1445 2.3038.1675 4.6418 5.1348 6.3379l2.6293.8511c1.3854.4212 2.1124.9742 2.0044 1.9763-.072 1.1335-1.246 1.8627-2.6663 1.8164-1.3979-.0304-2.5883-.7397-3.1272-1.6692l-4.5195 1.5229c1.1644 2.5257 4.0069 4.0314 6.8898 4.2143 4.0392.2559 8.0972-1.547 8.3472-5.5235.098-1.5588-.288-4.7363-4.727-6.1927z" fill="#18babd" fill-rule="evenodd"/></g><path clip-rule="evenodd" d="m61.8217 17.5887c.1172-1.8904 1.6045-3.8131 4.3039-3.8131 2.974 0 4.2262 1.9227 4.3045 3.8131zm4.2258-7.86202c-4.9302 0-9.4694 4.02442-9.4694 10.19652 0 6.5258 4.6566 10.3461 9.9391 10.3461 2.891 0 5.1528-1.0397 6.6994-2.6101l-3.216-3.231c-.7578.7947-1.8691 1.2078-3.4445 1.2078-2.5622 0-4.7-1.5258-4.8481-4.4929h13.763s.085-.7748.085-1.5217c0-6.2111-3.5609-9.89472-9.5085-9.89472z" fill="#18babd" fill-rule="evenodd"/><path clip-rule="evenodd" d="m84.6426 20.1143v-5.9792h4.9393v-4.25349h-4.9393v-7.03005h-4.9394v7.03005h-3.3516v4.25349h3.3516v5.9792c0 5.4513 4.4101 9.8715 9.8787 9.8715v-4.9264c-2.7637 0-4.9393-2.2211-4.9393-4.9451z" fill="#18babd" fill-rule="evenodd"/><path clip-rule="evenodd" d="m0 10.5168h4.90344c0-2.72216 2.2107-4.93964 4.92215-4.93964h1.13961v14.53714c0 5.4514 4.4058 9.8715 9.8276 9.8715v-4.9264c-2.7095 0-4.9167-2.221-4.9167-4.9451v-14.53714h6.0258v-4.933849h-12.07631c-5.42601 0-9.82559 4.426329-9.82559 9.873489z" fill="#18babd" fill-rule="evenodd"/></svg>