<svg fill="none" height="62" viewBox="0 0 160 62" width="160" xmlns="http://www.w3.org/2000/svg" xmlns:xlink="http://www.w3.org/1999/xlink"><mask id="a" height="31" maskUnits="userSpaceOnUse" width="23" x="135" y="14"><path clip-rule="evenodd" d="m157.774 44.6737v-30.1932h-22.591v30.1932z" fill="#fff" fill-rule="evenodd"/></mask><g clip-rule="evenodd" fill="#fff" fill-rule="evenodd"><path d="m43.476 29.6923v-15.1h-7.2754v15.1c0 8.0471 6.527 14.5722 14.5594 14.5722v-7.2723c-4.0142 0-7.284-3.2787-7.284-7.2999"/><path d="m66.697 37.2981v.0004c-.0017 0-.0034-.0002-.0051-.0002s-.0033.0002-.005.0002v-.0004c-4.0494-.0054-7.1412-3.2908-7.1412-7.345v-.5873c0-1.9489.663-3.8009 2.0498-5.1798 1.3715-1.3772 3.1522-2.3707 5.0985-2.3861h.001.0009c1.9462.0154 3.7209 1.0089 5.0924 2.3861 1.387 1.3789 2.044 3.2309 2.044 5.1798v.5873c0 4.0542-3.0861 7.3396-7.1353 7.345zm6.9611-22.7111v2.1888c-2.0037-1.3111-4.262-2.3632-6.9792-2.3632h-.025-.0457c-3.903 0-7.4934 1.6846-10.2519 4.4225-2.7695 2.7829-4.2152 6.6081-4.2152 10.5307v.5873c0 8.1152 6.3224 14.6957 14.4321 14.6957 2.618 0 5.0812-.7446 7.0849-2.0246v17.3107h7.0561.2222v-21.8092-.952-10.8617-4.3996-7.3225z"/><path d="m39.9232 9.14649c2.4496 0 4.5113-1.98728 4.5113-4.60534 0-2.5509-2.0617-4.54115-4.5113-4.54115-2.5209 0-4.6271 1.99025-4.6271 4.54115 0 2.61806 2.1062 4.60534 4.6271 4.60534"/></g><g mask="url(#a)"><path clip-rule="evenodd" d="m150.753 27.3432-4.736-1.4881c-1.644-.5517-2.961-1.4234-2.888-2.5898.138-2.1883 1.986-2.7537 3.82-2.638 1.113.0703 2.38.5078 3.112 1.4203l6.504-2.184.283-.1377c-1.784-3.4027-5.729-4.9705-9.692-5.2206-5.745-.3619-10.875 3.283-11.167 7.9171-.214 3.4007.248 6.8521 7.607 9.356l3.896 1.2563c2.052.6218 3.13 1.4381 2.969 2.9173-.106 1.6734-1.845 2.7498-3.95 2.6815-2.071-.045-3.834-1.092-4.633-2.4642l-6.695 2.2482c1.725 3.7284 5.936 5.951 10.207 6.221 5.983.3778 11.996-2.2835 12.366-8.1536.145-2.3011-.426-6.9917-7.003-9.1417" fill="#fff" fill-rule="evenodd"/></g><g clip-rule="evenodd" fill="#fff" fill-rule="evenodd"><path d="m91.5868 25.9642c.1736-2.7906 2.3771-5.6288 6.3763-5.6288 4.4059 0 6.2609 2.8382 6.3769 5.6288zm6.2605-11.6058c-7.304 0-14.0287 5.9407-14.0287 15.052 0 9.6334 6.8987 15.2728 14.7246 15.2728 4.2828 0 7.6338-1.5347 9.9248-3.8531l-4.764-4.7694c-1.123 1.173-2.769 1.7829-5.1033 1.7829-3.7958 0-6.9629-2.2524-7.1823-6.6324h20.3896s.126-1.1438.126-2.2462c0-9.1689-5.275-14.6066-14.0867-14.6066z"/><path d="m125.397 29.6925v-8.8264h7.317v-6.2789h-7.317v-10.37773h-7.318v10.37773h-4.965v6.2789h4.965v8.8264c0 8.0472 6.534 14.5722 14.635 14.5722v-7.2722c-4.094 0-7.317-3.2787-7.317-7.3"/><path d="m0 15.5249h7.26436c0-4.0185 3.27514-7.29189 7.29204-7.29189h1.6884v21.45959c0 8.0472 6.527 14.5722 14.5594 14.5722v-7.2722c-4.0141 0-7.284-3.2787-7.284-7.3v-21.45959h8.927v-7.283303h-17.8908c-8.03851 0-14.5564 6.534103-14.5564 14.575193"/></g></svg>