<svg width="15" height="22" fill="none" xmlns="http://www.w3.org/2000/svg"><path d="M0 16.6c0 1.8 1.5 3.3 3.3 3.3h1.5l-2.3-2.6a.7.7 0 011-1l2.2 2.4v-1.2c0-1.8-1.5-3.3-3.3-3.3H0v2.4z" fill="#47C4C6"/><path d="M1 .8z" fill="#fff"/><path d="M8.7 4.7c1 1.5 1.6 3.4 1.6 5.3v3c2-1.1 3.3-3.2 3.3-5.7V2.1h-.5c-1.9 0-3.5 1-4.4 2.6zM7.5 0c-.4 0-.7.1-1 .4L5.2 1.7c1 .5 1.8 1.1 2.5 1.8.5-.7 1.2-1.4 2-1.9L8.4.4c-.2-.3-.6-.4-1-.4zM1.4 7.7a6 6 0 006 6c.8 0 1.4-.6 1.4-1.4V10A8 8 0 001.4 2v5.6z" fill="#F1676C"/><path d="M15 16.6v-2.4h-2.4a3.3 3.3 0 00-3.3 3.3v1.2l2.1-2.4a.7.7 0 011.1 1L10.2 20h1.5c1.8 0 3.3-1.5 3.3-3.3zM8.4 21.3v-6a.7.7 0 10-1.5 0v6a.7.7 0 101.5 0z" fill="#47C4C6"/></svg>
